<svg width="39" height="39" viewBox="0 0 39 39" fill="none" xmlns="http://www.w3.org/2000/svg">
<g clip-path="url(#clip0_286_1073)">
<path d="M33.8095 4.59521H11.6808V38.9975H33.8095V4.59521Z" fill="#0C0C0C"/>
<path d="M38.9999 5.10605C38.9999 14.7096 38.9999 24.3131 38.9999 33.9166C38.9545 34.1768 38.9175 34.4381 38.8638 34.6958C38.3339 37.2757 36.2691 38.9726 33.6005 38.9881C31.0094 39.0036 28.4183 38.9869 25.826 38.9976C25.5228 38.9988 25.4321 38.9057 25.4333 38.6086C25.4453 34.2269 25.4512 29.8452 25.4489 25.4634C25.4489 25.1735 25.5479 25.0983 25.8248 25.1007C27.2606 25.1114 28.6952 25.1078 30.131 25.1042C30.6979 25.1031 31.0225 24.8525 31.0965 24.294C31.2875 22.8633 31.4689 21.4313 31.6216 19.997C31.7052 19.2094 31.3125 18.8121 30.5141 18.8097C28.9518 18.8049 27.3895 18.8013 25.8272 18.8133C25.53 18.8157 25.4262 18.725 25.4298 18.4231C25.4477 17.1403 25.4333 15.8575 25.456 14.5747C25.4787 13.2908 26.1924 12.4829 27.4611 12.3755C28.4075 12.2956 29.3623 12.3135 30.3136 12.2968C31.1013 12.2836 31.4641 11.9436 31.4689 11.1655C31.476 10.0474 31.476 8.93052 31.4689 7.81241C31.4641 7.05587 31.0989 6.69311 30.3446 6.68357C29.7096 6.67641 29.0735 6.65732 28.4398 6.68715C27.226 6.74442 25.9931 6.72175 24.8056 6.93535C22.8279 7.29214 21.2811 8.36848 20.2738 10.1524C19.5028 11.5175 19.2582 13.0068 19.2343 14.5437C19.2152 15.7883 19.2307 17.0329 19.2295 18.2775C19.2295 18.8049 19.2295 18.8049 18.6841 18.8061C17.8081 18.8061 16.9308 18.8049 16.0548 18.8061C15.0845 18.8073 14.7491 19.1402 14.7563 20.1092C14.767 21.4552 14.7849 22.8012 14.8016 24.1472C14.81 24.7642 15.1525 25.0995 15.7815 25.1019C16.7852 25.1066 17.789 25.121 18.7915 25.0947C19.1722 25.0852 19.2558 25.2176 19.2546 25.5732C19.2379 29.9036 19.2319 34.2352 19.2367 38.5657C19.2367 38.8974 19.1508 38.9964 18.8106 38.9952C14.3398 38.9845 9.86771 38.9988 5.39686 38.9749C4.78579 38.9714 4.14846 38.8735 3.56961 38.679C1.3306 37.9296 -0.00134277 35.9703 -0.00134277 33.5109C-0.00134277 24.3847 -0.000149273 15.2525 0.00223773 6.12153C0.00223773 5.67882 0.0225272 5.23373 0.0583322 4.79222C0.246905 2.51186 1.90587 0.640792 4.14965 0.171832C4.45757 0.107395 4.76788 0.0572775 5.077 0C14.6823 0 24.2876 0 33.8929 0C34.0146 0.029832 34.134 0.0775633 34.2569 0.0883028C36.478 0.285194 38.3649 1.95698 38.8232 4.14188C38.89 4.46168 38.9414 4.78506 38.9999 5.10605Z" fill="white"/>
</g>
<defs>
<clipPath id="clip0_286_1073">
<rect width="39" height="39" fill="white"/>
</clipPath>
</defs>
</svg>
