<svg width="39" height="39" viewBox="0 0 39 39" fill="none" xmlns="http://www.w3.org/2000/svg">
<g clip-path="url(#clip0_286_1070)">
<path d="M0 18.7201C0 9.89522 0 5.48321 2.74138 2.74138C5.48275 -0.000452843 9.89522 0 18.7201 0H20.2803C29.1052 0 33.5172 0 36.2591 2.74138C39.0005 5.48275 39.0005 9.89522 39.0005 18.7201V20.2803C39.0005 29.1052 39.0005 33.5172 36.2591 36.2591C33.5177 39.0005 29.1052 39.0005 20.2803 39.0005H18.7201C9.89522 39.0005 5.48321 39.0005 2.74138 36.2591C0 33.5172 0 29.1048 0 20.2803V18.7201Z" fill="white"/>
<path d="M20.7512 28.0965C11.8624 28.0965 6.79255 22.0025 6.58112 11.8628H11.0334C11.1797 19.3055 14.4621 22.458 17.0622 23.1076V11.8628H21.2546V18.2814C23.8221 18.0052 26.5192 15.08 27.4292 11.8628H31.6216C30.923 15.8279 27.9978 18.7527 25.9179 19.9552C27.9987 20.9299 31.33 23.4812 32.5977 28.0965H27.9824C26.9914 25.0087 24.5212 22.62 21.2551 22.295V28.0965H20.7512Z" fill="#0C0C0C"/>
</g>
<defs>
<clipPath id="clip0_286_1070">
<rect width="39" height="39" fill="white"/>
</clipPath>
</defs>
</svg>
