<svg width="40" height="40" viewBox="0 0 40 40" fill="none" xmlns="http://www.w3.org/2000/svg">
<g clip-path="url(#clip0_286_1076)">
<path d="M27.9819 40H12.0181C5.39288 40 0 34.6071 0 27.9819V12.0181C0 5.39288 5.39288 0 12.0181 0H27.9932C34.6184 0 40.0113 5.39288 40.0113 12.0181V27.9932C40 34.6071 34.6071 40 27.9819 40Z" fill="white"/>
<path d="M12.0181 3.76489C7.47315 3.76489 3.76484 7.4619 3.76484 12.0181V27.9933C3.76484 32.5382 7.46184 36.2465 12.0181 36.2465H27.9932C32.5382 36.2465 36.2465 32.5495 36.2465 27.9933V12.0181C36.2465 7.4732 32.5495 3.76489 27.9932 3.76489H12.0181Z" fill="#0C0C0C"/>
<path d="M30.5936 7.14526C29.2934 7.14526 28.2533 8.19671 28.2533 9.48557C28.2533 10.7857 29.3047 11.8259 30.5936 11.8259C31.8937 11.8259 32.9339 10.7744 32.9339 9.48557C32.9339 8.19671 31.8824 7.14526 30.5936 7.14526Z" fill="white"/>
<path d="M20.1696 10.1526C14.7428 10.1526 10.3222 14.5732 10.3222 20C10.3222 25.4268 14.7428 29.8473 20.1696 29.8473C25.5964 29.8473 30.017 25.4268 30.017 20C30.017 14.5732 25.5964 10.1526 20.1696 10.1526ZM20.1696 26.3086C16.6874 26.3086 13.8609 23.4822 13.8609 20C13.8609 16.5178 16.6874 13.6913 20.1696 13.6913C23.6518 13.6913 26.4782 16.5178 26.4782 20C26.4782 23.4822 23.6405 26.3086 20.1696 26.3086Z" fill="white"/>
</g>
<defs>
<clipPath id="clip0_286_1076">
<rect width="40" height="40" fill="white"/>
</clipPath>
</defs>
</svg>
